<svg width="369" height="161" viewBox="0 0 369 161" fill="none" xmlns="http://www.w3.org/2000/svg">
<path fill-rule="evenodd" clip-rule="evenodd" d="M126.779 8.04945C126.779 3.60386 130.383 0 134.828 0H233.434C237.88 0 241.484 3.60386 241.484 8.04945C241.484 12.495 237.88 16.0989 233.434 16.0989H134.828C130.383 16.0989 126.779 12.495 126.779 8.04945ZM355.182 79.2846C355.249 79.2863 355.316 79.2871 355.383 79.2871C359.829 79.2871 363.433 75.6832 363.433 71.2376V8.45193C363.433 8.38443 363.432 8.31712 363.43 8.25002C363.432 8.18333 363.433 8.11654 363.433 8.04946C363.433 3.60387 359.829 9.29052e-06 355.383 8.90187e-06L261.607 0C257.161 0 253.558 3.60386 253.558 8.04945C253.558 12.495 257.161 16.0989 261.607 16.0989L347.334 16.0989V63.1882L261.607 63.1882C257.161 63.1882 253.558 66.7921 253.558 71.2376C253.558 71.5093 253.571 71.7778 253.597 72.0426C253.571 72.3073 253.558 72.5758 253.558 72.8475V118.729L253.558 118.781C253.586 123.203 257.179 126.779 261.607 126.779L303.867 126.779V144.085H261.607C257.161 144.085 253.558 147.689 253.558 152.135C253.558 156.58 257.161 160.184 261.607 160.184L311.891 160.184C311.899 160.184 311.908 160.184 311.916 160.184C311.924 160.184 311.933 160.184 311.941 160.184H360.213C364.658 160.184 368.262 156.58 368.262 152.135C368.262 147.689 364.658 144.085 360.213 144.085H319.966V126.779L360.213 126.779C364.658 126.779 368.262 123.175 368.262 118.729C368.262 114.284 364.658 110.68 360.213 110.68H319.966V82.1044C319.966 81.1133 319.786 80.1639 319.459 79.2871H354.981C355.023 79.2871 355.064 79.2868 355.106 79.2861L355.136 79.2856L355.182 79.2846ZM303.867 110.68V82.1044C303.867 81.1133 304.046 80.164 304.373 79.2871H269.657V110.68H303.867ZM89.3489 152.17V152.423C89.3488 156.868 85.745 160.472 81.2994 160.472H8.85437C7.75147 160.472 6.70039 160.25 5.74328 159.849C2.42152 158.857 0 155.779 0 152.135L6.63242e-06 8.45196C6.82674e-06 4.00637 3.60387 0.40251 8.04946 0.40251C12.495 0.40251 16.0989 4.00638 16.0989 8.45196L16.0989 71.2376L73.25 71.2376V8.45196C73.25 4.00637 76.8539 0.40251 81.2995 0.40251C85.7451 0.40251 89.3489 4.00638 89.3489 8.45196L89.3489 152.135L89.3489 152.17ZM61.8663 144.373H16.2133L16.2133 98.7202L61.8663 144.373ZM73.25 132.99L27.5969 87.3365L73.25 87.3365V132.99ZM106.655 160.184C102.21 160.184 98.6058 156.58 98.6058 152.135L98.6058 8.45196C98.6058 4.00637 102.21 0.40251 106.655 0.40251C111.101 0.40251 114.705 4.00638 114.705 8.45196L114.705 152.135C114.705 156.58 111.101 160.184 106.655 160.184ZM126.376 118.729C126.376 123.175 129.98 126.779 134.426 126.779L134.475 126.779L134.543 126.778C134.571 126.778 134.599 126.777 134.627 126.776C134.694 126.778 134.761 126.779 134.828 126.779H233.434C237.88 126.779 241.484 123.175 241.484 118.729C241.484 114.284 237.88 110.68 233.434 110.68H142.475V79.2871H233.434C237.88 79.2871 241.484 75.6832 241.484 71.2376C241.484 66.7921 237.88 63.1882 233.434 63.1882H134.426C129.98 63.1882 126.376 66.7921 126.376 71.2376C126.376 71.5093 126.39 71.7778 126.416 72.0426C126.39 72.3073 126.376 72.5758 126.376 72.8475V118.729ZM126.779 152.135C126.779 147.689 130.383 144.085 134.828 144.085L233.434 144.085C237.88 144.085 241.484 147.689 241.484 152.135C241.484 156.58 237.88 160.184 233.434 160.184L134.828 160.184C130.383 160.184 126.779 156.58 126.779 152.135Z" fill="white"/>
</svg>
