<svg width="135" height="40" viewBox="0 0 135 40" fill="none" xmlns="http://www.w3.org/2000/svg">
<g clip-path="url(#clip0)">
<path d="M130 40H5C2.25 40 0 37.75 0 35V5C0 2.25 2.25 2.38419e-06 5 2.38419e-06H130C132.75 2.38419e-06 135 2.25 135 5V35C135 37.75 132.75 40 130 40Z" fill="black"/>
<path d="M130 2.38419e-06H5C2.25 2.38419e-06 0 2.25 0 5V35C0 37.75 2.25 40 5 40H130C132.75 40 135 37.75 135 35V5C135 2.25 132.75 2.38419e-06 130 2.38419e-06ZM130 0.800002C132.316 0.800002 134.2 2.6844 134.2 5V35C134.2 37.316 132.316 39.2004 130 39.2004H5C2.6844 39.2004 0.8 37.316 0.8 35V5C0.8 2.6844 2.6844 0.800002 5 0.800002H130Z" fill="#A6A6A6"/>
<path d="M47.4184 10.2434C47.4184 11.0812 47.1703 11.7484 46.6734 12.2461C46.109 12.8379 45.3734 13.134 44.4691 13.134C43.6031 13.134 42.8668 12.834 42.2613 12.2332C41.6547 11.6328 41.352 10.8883 41.352 10C41.352 9.1113 41.6547 8.3672 42.2613 7.7664C42.8668 7.166 43.6031 6.8656 44.4691 6.8656C44.8988 6.8656 45.3102 6.9496 45.7008 7.1172C46.0914 7.2852 46.4047 7.5082 46.6391 7.7875L46.1117 8.3152C45.7145 7.8406 45.1676 7.6035 44.4691 7.6035C43.8375 7.6035 43.2914 7.8254 42.8305 8.2695C42.3695 8.7141 42.1391 9.2906 42.1391 10C42.1391 10.7094 42.3695 11.2859 42.8305 11.7305C43.2914 12.1746 43.8375 12.3965 44.4691 12.3965C45.1391 12.3965 45.6977 12.1734 46.1449 11.7266C46.4352 11.4355 46.6031 11.0309 46.648 10.5113H44.4691V9.7906H47.3766C47.4047 9.9473 47.4184 10.0977 47.4184 10.2434Z" fill="white"/>
<path d="M47.4184 10.2434H47.3184C47.3176 11.0621 47.0785 11.698 46.6027 12.1754L46.6016 12.1762L46.6012 12.177C46.0547 12.7484 45.3523 13.0328 44.4691 13.034C43.6262 13.0328 42.9207 12.7453 42.3316 12.1625C41.7438 11.5785 41.4531 10.8656 41.452 10C41.4531 9.13401 41.7438 8.42151 42.3316 7.83791C42.9207 7.25471 43.6262 6.96681 44.4691 6.96561C44.8859 6.96561 45.2828 7.0469 45.6613 7.209C46.0402 7.3723 46.3395 7.5863 46.5625 7.852L46.6391 7.78751L46.5684 7.71681L46.041 8.24491L46.1117 8.31521L46.1887 8.2512C45.773 7.7531 45.1895 7.50201 44.4691 7.50351C43.8141 7.50271 43.2379 7.7367 42.7613 8.1977C42.2801 8.6602 42.0383 9.26911 42.0391 10C42.0383 10.7309 42.2801 11.3398 42.7613 11.8023C43.2379 12.2633 43.8141 12.4973 44.4691 12.4965C45.1613 12.4977 45.7512 12.2629 46.2156 11.7973C46.5258 11.4863 46.7016 11.0555 46.7477 10.5199L46.757 10.4113H44.5691V9.89061H47.3766V9.79061L47.2781 9.80821C47.3055 9.95981 47.3184 10.1039 47.3184 10.2434H47.4184H47.5184C47.5184 10.0914 47.5043 9.93521 47.475 9.77271L47.4602 9.69061H44.3691V10.5113V10.6113H46.648V10.5113L46.5484 10.5027C46.5043 11.0059 46.3441 11.3848 46.0742 11.6559C45.6445 12.084 45.1172 12.2953 44.4691 12.2965C43.8609 12.2957 43.3449 12.0863 42.9 11.6586C42.4594 11.2324 42.2402 10.6883 42.2391 10C42.2402 9.31171 42.4594 8.76761 42.9 8.34141C43.3449 7.91371 43.8609 7.70431 44.4691 7.70351C45.1453 7.70511 45.6559 7.92851 46.0352 8.37971L46.1055 8.46331L46.7098 7.85821L46.7746 7.7934L46.7156 7.72341C46.4699 7.43051 46.1426 7.19801 45.7402 7.0254C45.3371 6.8523 44.9117 6.76561 44.4691 6.76561C43.5801 6.76481 42.8129 7.0773 42.1906 7.69571C41.566 8.31291 41.2512 9.08871 41.252 10C41.2512 10.9109 41.566 11.6871 42.191 12.3047C42.8129 12.9227 43.5801 13.2348 44.4691 13.234C45.3949 13.2348 46.1629 12.9273 46.7457 12.3152L46.6734 12.2461L46.7441 12.3168C47.2621 11.7992 47.5191 11.1 47.5184 10.2434H47.4184Z" fill="white"/>
<path d="M52.0277 7.7371H49.2953V9.6395H51.7594V10.3605H49.2953V12.2629H52.0277V13H48.525V7H52.0277V7.7371Z" fill="white"/>
<path d="M52.0277 7.7371V7.6371H49.1953V9.7395H51.6594V10.2602L49.1953 10.2605V12.3629H51.9277V12.9H48.625V7.1H51.9277V7.7371H52.0277V7.6371V7.7371H52.1277V7V6.9H48.425V13.1H52.1277V12.2629V12.1629H49.3953V10.4605H51.8594V9.6395V9.5395H49.3953V7.8371H52.1277V7.7371H52.0277Z" fill="white"/>
<path d="M55.2789 13H54.5074V7.7371H52.8316V7H56.9547V7.7371H55.2789V13Z" fill="white"/>
<path d="M55.2789 13V12.9H54.6074V7.6371H52.9316V7.1H56.8547V7.6371H55.1789V13H55.2789V12.9V13H55.3789V7.8371H57.0547V7V6.9H52.7316V7.7371V7.8371H54.4074V13.1H55.2789H55.3789V13H55.2789Z" fill="white"/>
<path d="M59.9379 13V7H60.7086V13H59.9379Z" fill="white"/>
<path d="M59.9379 13H60.0379V7.1H60.6086V12.9H59.9379V13H60.0379H59.9379V13.1H60.7086H60.8086V6.9H59.9379H59.8379V13.1H59.9379V13Z" fill="white"/>
<path d="M64.1285 13H63.357V7.7371H61.6813V7H65.8043V7.7371H64.1285V13Z" fill="white"/>
<path d="M64.1285 13V12.9H63.457V7.6371H61.7813V7.1H65.7043V7.6371H64.0285V13H64.1285V12.9V13H64.2285V7.8371H65.9043V7V6.9H61.5813V7.7371V7.8371H63.257V13.1H64.1285H64.2285V13H64.1285Z" fill="white"/>
<path d="M69.7793 11.7223C70.2234 12.1719 70.7668 12.3965 71.4094 12.3965C72.052 12.3965 72.5957 12.1719 73.0391 11.7223C73.4836 11.2727 73.7063 10.698 73.7063 10C73.7063 9.302 73.4836 8.7273 73.0391 8.2777C72.5957 7.8281 72.052 7.6035 71.4094 7.6035C70.7668 7.6035 70.2234 7.8281 69.7793 8.2777C69.3359 8.7273 69.1133 9.302 69.1133 10C69.1133 10.698 69.3359 11.2727 69.7793 11.7223ZM73.6094 12.2246C73.0195 12.8312 72.2859 13.134 71.4094 13.134C70.532 13.134 69.7988 12.8312 69.2102 12.2246C68.6199 11.6187 68.3262 10.877 68.3262 10C68.3262 9.123 68.6199 8.3812 69.2102 7.7754C69.7988 7.1687 70.532 6.8656 71.4094 6.8656C72.2813 6.8656 73.0129 7.1703 73.6055 7.7793C74.1973 8.3883 74.4934 9.1285 74.4934 10C74.4934 10.877 74.198 11.6187 73.6094 12.2246Z" fill="white"/>
<path d="M69.7793 11.7223L69.7082 11.7926C70.1688 12.2602 70.7434 12.4977 71.4094 12.4965C72.075 12.4977 72.6504 12.2602 73.1102 11.7926C73.5738 11.3246 73.807 10.7191 73.8063 10C73.807 9.2809 73.5738 8.6754 73.1102 8.2074C72.6504 7.7398 72.075 7.5023 71.4094 7.5035C70.7434 7.5023 70.1688 7.7398 69.7082 8.2074C69.2457 8.6754 69.0121 9.2809 69.0133 10C69.0121 10.7191 69.2457 11.3246 69.7082 11.7926L69.7793 11.7223L69.8504 11.652C69.4262 11.2203 69.2141 10.6773 69.2133 10C69.2141 9.3227 69.4262 8.7797 69.8504 8.348C70.2785 7.9164 70.7898 7.7047 71.4094 7.7035C72.0285 7.7047 72.541 7.9164 72.968 8.348C73.393 8.7797 73.6051 9.3227 73.6059 10C73.6051 10.6773 73.393 11.2203 72.968 11.652C72.541 12.0836 72.0285 12.2953 71.4094 12.2965C70.7898 12.2953 70.2785 12.0836 69.8504 11.652L69.7793 11.7223ZM73.6094 12.2246L73.5379 12.1551C72.9645 12.7426 72.2633 13.0328 71.4094 13.034C70.5551 13.0328 69.8539 12.7426 69.2816 12.1551L69.2789 12.152L69.2816 12.1551C68.7094 11.5656 68.427 10.8547 68.4262 10C68.427 9.1453 68.7094 8.4344 69.2816 7.8449C69.8539 7.2574 70.5551 6.9668 71.4094 6.9656C72.2578 6.9668 72.9574 7.2586 73.534 7.8492C74.1082 8.4414 74.3922 9.1512 74.3934 10C74.3922 10.8547 74.109 11.5656 73.5379 12.1551L73.6094 12.2246L73.6813 12.2941C74.2875 11.6715 74.5941 10.8992 74.5934 10C74.5941 9.1059 74.2863 8.3352 73.6773 7.7098C73.068 7.082 72.3047 6.7645 71.4094 6.7656C70.5094 6.7645 69.7438 7.0805 69.1383 7.7059V7.7055C68.5309 8.3285 68.2254 9.1008 68.2262 10C68.2254 10.8992 68.5309 11.6715 69.1383 12.2945L69.141 12.2973L69.1383 12.2941C69.7438 12.9195 70.5094 13.2348 71.4094 13.234C72.309 13.2348 73.0746 12.9195 73.6813 12.2941L73.6094 12.2246Z" fill="white"/>
<path d="M75.5754 13V7H76.5137L79.4297 11.6676H79.4629L79.4297 10.5113V7H80.2012V13H79.3965L76.3457 8.1062H76.3125L76.3457 9.2629V13H75.5754Z" fill="white"/>
<path d="M75.5754 13H75.6754V7.1H76.4582L79.3742 11.7676H79.4629H79.5656L79.5297 10.5098V7.1H80.1012V12.9H79.452L76.4012 8.0062H76.3125H76.2098L76.2457 9.2645V12.9H75.5754V13H75.6754H75.5754V13.1H76.3457H76.4457V9.2613L76.4125 8.1035L76.3125 8.1062V8.2062H76.3457V8.1062L76.2609 8.1594L79.341 13.1H80.2012H80.3012V6.9H79.4297H79.3297V10.5125L79.3629 11.6703L79.4629 11.6676V11.5676H79.4297V11.6676L79.5145 11.6145L76.5691 6.9H75.5754H75.4754V13.1H75.5754V13Z" fill="white"/>
<path d="M106.936 30H108.802V17.4988H106.936V30ZM123.743 22.002L121.604 27.4219H121.54L119.32 22.002H117.31L120.639 29.5773L118.741 33.791H120.688L125.818 22.002H123.743ZM113.161 28.5801C112.549 28.5801 111.697 28.2746 111.697 27.5184C111.697 26.5535 112.759 26.1836 113.675 26.1836C114.496 26.1836 114.881 26.3605 115.38 26.602C115.235 27.7598 114.238 28.5801 113.161 28.5801ZM113.386 21.7285C112.035 21.7285 110.636 22.3238 110.057 23.6426L111.713 24.334C112.067 23.6426 112.726 23.4172 113.418 23.4172C114.383 23.4172 115.364 23.9965 115.38 25.0258V25.1543C115.042 24.9613 114.319 24.6719 113.434 24.6719C111.649 24.6719 109.831 25.6527 109.831 27.4863C109.831 29.159 111.295 30.2367 112.935 30.2367C114.19 30.2367 114.881 29.6738 115.316 29.0145H115.38V29.9793H117.181V25.1863C117.181 22.9672 115.525 21.7285 113.386 21.7285ZM101.854 23.5238H99.2V19.2387H101.854C103.249 19.2387 104.041 20.3937 104.041 21.3812C104.041 22.35 103.249 23.5238 101.854 23.5238ZM101.806 17.4988H97.335V30H99.2V25.2637H101.806C103.874 25.2637 105.907 23.7664 105.907 21.3812C105.907 18.9961 103.874 17.4988 101.806 17.4988ZM77.425 28.5824C76.1359 28.5824 75.0566 27.5031 75.0566 26.0207C75.0566 24.5227 76.1359 23.427 77.425 23.427C78.6977 23.427 79.6965 24.5227 79.6965 26.0207C79.6965 27.5031 78.6977 28.5824 77.425 28.5824ZM79.5676 22.702H79.5031C79.0844 22.2027 78.2785 21.7516 77.2637 21.7516C75.1371 21.7516 73.1879 23.6203 73.1879 26.0207C73.1879 28.4051 75.1371 30.2578 77.2637 30.2578C78.2785 30.2578 79.0844 29.8066 79.5031 29.2914H79.5676V29.9035C79.5676 31.5309 78.6977 32.4008 77.2961 32.4008C76.1523 32.4008 75.4434 31.5789 75.1531 30.8863L73.5262 31.5629C73.9934 32.6906 75.234 34.0762 77.2961 34.0762C79.4871 34.0762 81.3398 32.7871 81.3398 29.6457V22.0094H79.5676V22.702ZM82.6285 30H84.4973V17.4984H82.6285V30ZM87.2523 25.8758C87.2039 24.2324 88.525 23.3949 89.4754 23.3949C90.217 23.3949 90.845 23.7652 91.054 24.2973L87.2523 25.8758ZM93.052 24.4582C92.698 23.5074 91.618 21.7516 89.4109 21.7516C87.2199 21.7516 85.3996 23.4754 85.3996 26.0047C85.3996 28.3891 87.2039 30.2578 89.6203 30.2578C91.57 30.2578 92.698 29.0656 93.165 28.373L91.715 27.4062C91.232 28.1152 90.571 28.5824 89.6203 28.5824C88.6699 28.5824 87.9934 28.1473 87.5582 27.2937L93.245 24.9414L93.052 24.4582ZM47.7438 23.0566V24.8609H52.0613C51.9324 25.8758 51.5941 26.6168 51.0785 27.1324C50.4504 27.7609 49.4676 28.4535 47.7438 28.4535C45.0855 28.4535 43.0074 26.3109 43.0074 23.6527C43.0074 20.9945 45.0855 18.8516 47.7438 18.8516C49.1777 18.8516 50.2246 19.4156 50.998 20.1406L52.2707 18.868C51.1914 17.8367 49.7574 17.0473 47.7438 17.0473C44.1027 17.0473 41.0418 20.0117 41.0418 23.6527C41.0418 27.2937 44.1027 30.2578 47.7438 30.2578C49.7094 30.2578 51.1914 29.6137 52.3512 28.4051C53.5434 27.2129 53.9141 25.5375 53.9141 24.1844C53.9141 23.7652 53.882 23.3789 53.8172 23.0566H47.7438ZM58.8227 28.5824C57.5336 28.5824 56.4219 27.5191 56.4219 26.0047C56.4219 24.4742 57.5336 23.427 58.8227 23.427C60.1113 23.427 61.223 24.4742 61.223 26.0047C61.223 27.5191 60.1113 28.5824 58.8227 28.5824ZM58.8227 21.7516C56.4703 21.7516 54.5531 23.5398 54.5531 26.0047C54.5531 28.4535 56.4703 30.2578 58.8227 30.2578C61.1746 30.2578 63.0918 28.4535 63.0918 26.0047C63.0918 23.5398 61.1746 21.7516 58.8227 21.7516ZM68.1359 28.5824C66.8473 28.5824 65.7355 27.5191 65.7355 26.0047C65.7355 24.4742 66.8473 23.427 68.1359 23.427C69.4246 23.427 70.5363 24.4742 70.5363 26.0047C70.5363 27.5191 69.4246 28.5824 68.1359 28.5824ZM68.1359 21.7516C65.7836 21.7516 63.8668 23.5398 63.8668 26.0047C63.8668 28.4535 65.7836 30.2578 68.1359 30.2578C70.4879 30.2578 72.4051 28.4535 72.4051 26.0047C72.4051 23.5398 70.4879 21.7516 68.1359 21.7516Z" fill="white"/>
<path d="M10.5098 32.3895L10.4355 32.3184C10.1445 32.0105 9.97269 31.5324 9.97269 30.9133V31.059V8.943C9.97269 8.941 9.97269 8.9395 9.97269 8.9379C9.97269 8.9398 9.97269 8.9414 9.97269 8.9434V9.0895C9.97269 8.4191 10.173 7.9141 10.5086 7.6113L22.8984 20.0008L10.5098 32.3895ZM9.97269 8.9367C9.97269 8.8816 9.97419 8.8281 9.97699 8.7754C9.97419 8.8277 9.97269 8.8816 9.97269 8.9367ZM9.97699 8.773C9.97699 8.7723 9.97699 8.7715 9.97729 8.7707C9.97699 8.7715 9.97699 8.7723 9.97699 8.773ZM9.97729 8.766C9.97729 8.7656 9.97729 8.7652 9.97729 8.7648C9.97729 8.7652 9.97729 8.7656 9.97729 8.766Z" fill="url(#paint0_linear)"/>
<path d="M27.0277 24.2785L27.1219 24.225L32.0148 21.4449C32.4813 21.1797 32.7922 20.8582 32.9473 20.518C32.7926 20.8582 32.4816 21.1801 32.0148 21.4453L27.1219 24.2254L27.0277 24.2785ZM27.0289 24.132L22.8984 20.0008L27.0285 15.8703L32.0148 18.7031C32.648 19.0629 33.0035 19.5266 33.0629 20.0004C33.0629 20.0008 33.0629 20.0016 33.0629 20.0023C33.0035 20.475 32.648 20.9391 32.0148 21.2988L27.0289 24.132Z" fill="url(#paint1_linear)"/>
<path d="M11.393 32.8613C11.0469 32.8613 10.7449 32.7488 10.5094 32.5363L10.5098 32.5359C10.7453 32.7484 11.0477 32.8613 11.3938 32.8613C11.4238 32.8613 11.4543 32.8605 11.4852 32.859C11.4539 32.8605 11.423 32.8613 11.393 32.8613ZM11.3934 32.7148C11.0473 32.7152 10.7453 32.6023 10.5098 32.3898V32.3895L22.8984 20.0008L27.0289 24.132L12.5137 32.3793C12.1121 32.607 11.7316 32.7148 11.3934 32.7148ZM10.5063 32.5336C10.4844 32.5137 10.4629 32.4926 10.4418 32.4707L10.5063 32.5336Z" fill="url(#paint2_linear)"/>
<path d="M22.8984 20.0008L10.5086 7.6113C10.7441 7.3992 11.0457 7.2867 11.3914 7.2867C11.7305 7.2867 12.1113 7.3949 12.5137 7.623L27.0285 15.8703L22.8984 20.0008ZM27.1219 15.777L12.5137 7.47699C12.1113 7.24879 11.7305 7.1406 11.3914 7.1406C11.3898 7.1406 11.3887 7.1406 11.3871 7.1406C11.3891 7.1406 11.3906 7.1406 11.393 7.1406C11.7313 7.1406 12.1117 7.24839 12.5137 7.47659L27.1219 15.777Z" fill="url(#paint3_linear)"/>
<path d="M11.4852 32.859C11.7996 32.841 12.1477 32.7328 12.5137 32.5254L27.0277 24.2785L12.5137 32.5254C12.148 32.7332 11.7996 32.841 11.4852 32.859ZM10.5094 32.5363L10.5063 32.5336C10.5074 32.5344 10.5086 32.5355 10.5094 32.5363ZM10.4418 32.4707L10.4355 32.4645V32.4641C10.4379 32.4664 10.4398 32.4687 10.4418 32.4707Z" fill="black"/>
<path d="M27.0277 24.2785L27.1219 24.225L27.0277 24.2785Z" fill="url(#paint4_linear)"/>
<path d="M11.3938 32.8613C11.0477 32.8613 10.7453 32.7484 10.5098 32.5359L10.5094 32.5363C10.5086 32.5355 10.5074 32.5344 10.5063 32.5336L10.4418 32.4707C10.4398 32.4687 10.4379 32.4664 10.4355 32.4641L10.5098 32.3898C10.7453 32.6023 11.0473 32.7152 11.3934 32.7148C11.7316 32.7148 12.1121 32.607 12.5137 32.3793L27.0289 24.132L27.1219 24.225L27.0277 24.2785L12.5137 32.5254C12.1477 32.7328 11.7996 32.841 11.4852 32.859C11.4543 32.8605 11.4238 32.8613 11.3938 32.8613Z" fill="url(#paint5_linear)"/>
<path d="M10.4355 32.4645C10.1445 32.1566 9.97269 31.6785 9.97269 31.0594V31.059C9.97269 31.6785 10.1445 32.1562 10.4355 32.4641V32.4645Z" fill="black"/>
<path d="M10.4355 32.4641C10.1445 32.1562 9.97269 31.6785 9.97269 31.059V30.9133C9.97269 31.5324 10.1445 32.0105 10.4355 32.3184L10.5098 32.3895L10.4355 32.4641Z" fill="url(#paint6_linear)"/>
<path d="M10.4355 32.4641L10.5098 32.3895V32.3898L10.4355 32.4641Z" fill="url(#paint7_linear)"/>
<path d="M32.9473 20.518C33.0242 20.3492 33.0629 20.1758 33.0629 20.0023C33.0629 20.002 33.0629 20.0016 33.0629 20.0016C33.0629 20.1754 33.0242 20.3488 32.9473 20.518Z" fill="black"/>
<path d="M27.1219 24.225L27.0289 24.132L32.0148 21.2988C32.648 20.9391 33.0035 20.475 33.0629 20.0023C33.0629 20.1758 33.0242 20.3492 32.9473 20.518C32.7922 20.8582 32.4813 21.1797 32.0148 21.4449L27.1219 24.225Z" fill="url(#paint8_linear)"/>
<path d="M33.0629 20.0008V20.0004C33.0625 19.4773 32.7129 18.9543 32.0148 18.5574L27.1219 15.7773H27.1215L27.1219 15.777L32.0148 18.557C32.7137 18.9539 33.0637 19.4777 33.0629 20.0008Z" fill="#404040"/>
<path d="M33.0629 20.0004C33.0035 19.5266 32.648 19.0629 32.0148 18.7031L27.0285 15.8703L27.1215 15.7773H27.1219L32.0148 18.5574C32.7129 18.9543 33.0625 19.4773 33.0629 20.0004Z" fill="url(#paint9_linear)"/>
<path d="M9.97269 8.9379C9.97269 8.9375 9.97269 8.9371 9.97269 8.9367C9.97269 8.9371 9.97269 8.9375 9.97269 8.9379ZM9.97699 8.7754C9.97699 8.7746 9.97699 8.7738 9.97699 8.773C9.97699 8.7738 9.97699 8.7746 9.97699 8.7754ZM9.97729 8.7707C9.97729 8.7691 9.97729 8.7676 9.97729 8.766C9.97729 8.7676 9.97729 8.7691 9.97729 8.7707ZM9.97729 8.7648C10.0352 7.7375 10.5938 7.1441 11.384 7.1406C11.0414 7.1426 10.743 7.2551 10.5094 7.4656V7.4652L10.5066 7.468C10.482 7.4902 10.4586 7.5137 10.4355 7.5379C10.173 7.8156 10.0074 8.2316 9.97729 8.7648Z" fill="#404040"/>
<path d="M9.97269 9.0895V8.9434C9.97269 8.9414 9.97269 8.9398 9.97269 8.9379C9.97269 8.9375 9.97269 8.9371 9.97269 8.9367C9.97269 8.8816 9.97419 8.8277 9.97699 8.7754C9.97699 8.7746 9.97699 8.7738 9.97699 8.773C9.97699 8.7723 9.97699 8.7715 9.97729 8.7707C9.97729 8.7691 9.97729 8.7676 9.97729 8.766C9.97729 8.7656 9.97729 8.7652 9.97729 8.7648C10.0074 8.2316 10.173 7.8156 10.4355 7.5379L10.5086 7.6113C10.173 7.9141 9.97269 8.4191 9.97269 9.0895ZM10.5066 7.468L10.5094 7.4652C10.5086 7.4664 10.5074 7.4672 10.5066 7.468Z" fill="url(#paint10_linear)"/>
<path d="M27.0285 15.8703L12.5137 7.623C12.1113 7.3949 11.7305 7.2867 11.3914 7.2867C11.0457 7.2867 10.7441 7.3992 10.5086 7.6113L10.4355 7.5379C10.4586 7.5137 10.482 7.4902 10.5066 7.468C10.5074 7.4672 10.5086 7.4664 10.5094 7.4656C10.743 7.2551 11.0414 7.1426 11.384 7.1406C11.3848 7.1406 11.3859 7.1406 11.3871 7.1406C11.3887 7.1406 11.3898 7.1406 11.3914 7.1406C11.7305 7.1406 12.1113 7.2488 12.5137 7.477L27.1219 15.777L27.1215 15.7773L27.0285 15.8703Z" fill="url(#paint11_linear)"/>
</g>
<defs>
<linearGradient id="paint0_linear" x1="21.7998" y1="8.7097" x2="5.01729" y2="25.4922" gradientUnits="userSpaceOnUse">
<stop stop-color="#00A0FF"/>
<stop offset="0.00657445" stop-color="#00A1FF"/>
<stop offset="0.2601" stop-color="#00BEFF"/>
<stop offset="0.5122" stop-color="#00D2FF"/>
<stop offset="0.7604" stop-color="#00DFFF"/>
<stop offset="1" stop-color="#00E3FF"/>
</linearGradient>
<linearGradient id="paint1_linear" x1="33.8344" y1="20.0014" x2="9.63741" y2="20.0014" gradientUnits="userSpaceOnUse">
<stop stop-color="#FFE000"/>
<stop offset="0.4087" stop-color="#FFBD00"/>
<stop offset="0.7754" stop-color="#FFA500"/>
<stop offset="1" stop-color="#FF9C00"/>
</linearGradient>
<linearGradient id="paint2_linear" x1="24.827" y1="22.2961" x2="2.0687" y2="45.0544" gradientUnits="userSpaceOnUse">
<stop stop-color="#FF3A44"/>
<stop offset="1" stop-color="#C31162"/>
</linearGradient>
<linearGradient id="paint3_linear" x1="7.29731" y1="0.176197" x2="17.4598" y2="10.3387" gradientUnits="userSpaceOnUse">
<stop stop-color="#32A071"/>
<stop offset="0.0685" stop-color="#2DA771"/>
<stop offset="0.4762" stop-color="#15CF74"/>
<stop offset="0.8009" stop-color="#06E775"/>
<stop offset="1" stop-color="#00F076"/>
</linearGradient>
<linearGradient id="paint4_linear" x1="33.8341" y1="20.0013" x2="9.63809" y2="20.0013" gradientUnits="userSpaceOnUse">
<stop stop-color="#CCB300"/>
<stop offset="0.4087" stop-color="#CC9700"/>
<stop offset="0.7754" stop-color="#CC8400"/>
<stop offset="1" stop-color="#CC7D00"/>
</linearGradient>
<linearGradient id="paint5_linear" x1="24.827" y1="22.2961" x2="2.06868" y2="45.0544" gradientUnits="userSpaceOnUse">
<stop stop-color="#CC2E36"/>
<stop offset="1" stop-color="#9C0E4E"/>
</linearGradient>
<linearGradient id="paint6_linear" x1="21.7998" y1="8.70969" x2="5.01728" y2="25.4922" gradientUnits="userSpaceOnUse">
<stop stop-color="#008DE0"/>
<stop offset="0.00657445" stop-color="#008DE0"/>
<stop offset="0.2601" stop-color="#00A7E0"/>
<stop offset="0.5122" stop-color="#00B8E0"/>
<stop offset="0.7604" stop-color="#00C4E0"/>
<stop offset="1" stop-color="#00C7E0"/>
</linearGradient>
<linearGradient id="paint7_linear" x1="24.8271" y1="22.2966" x2="2.06993" y2="45.0551" gradientUnits="userSpaceOnUse">
<stop stop-color="#E0333C"/>
<stop offset="1" stop-color="#AB0F56"/>
</linearGradient>
<linearGradient id="paint8_linear" x1="33.8344" y1="20.0014" x2="9.6374" y2="20.0014" gradientUnits="userSpaceOnUse">
<stop stop-color="#E0C500"/>
<stop offset="0.4087" stop-color="#E0A600"/>
<stop offset="0.7754" stop-color="#E09100"/>
<stop offset="1" stop-color="#E08900"/>
</linearGradient>
<linearGradient id="paint9_linear" x1="33.8344" y1="20.0014" x2="9.63741" y2="20.0014" gradientUnits="userSpaceOnUse">
<stop stop-color="#FFE840"/>
<stop offset="0.4087" stop-color="#FFCE40"/>
<stop offset="0.7754" stop-color="#FFBC40"/>
<stop offset="1" stop-color="#FFB540"/>
</linearGradient>
<linearGradient id="paint10_linear" x1="21.7998" y1="8.7097" x2="5.01727" y2="25.4922" gradientUnits="userSpaceOnUse">
<stop stop-color="#40B8FF"/>
<stop offset="0.00657445" stop-color="#40B9FF"/>
<stop offset="0.2601" stop-color="#40CEFF"/>
<stop offset="0.5122" stop-color="#40DDFF"/>
<stop offset="0.7604" stop-color="#40E7FF"/>
<stop offset="1" stop-color="#40EAFF"/>
</linearGradient>
<linearGradient id="paint11_linear" x1="7.29729" y1="0.1762" x2="17.4598" y2="10.3387" gradientUnits="userSpaceOnUse">
<stop stop-color="#65B895"/>
<stop offset="0.0685" stop-color="#62BD95"/>
<stop offset="0.4762" stop-color="#50DB97"/>
<stop offset="0.8009" stop-color="#44ED98"/>
<stop offset="1" stop-color="#40F498"/>
</linearGradient>
<clipPath id="clip0">
<rect width="135" height="40" fill="white"/>
</clipPath>
</defs>
</svg>
