<svg width="21" height="21" viewBox="0 0 21 21" fill="none" xmlns="http://www.w3.org/2000/svg">
<g clip-path="url(#clip0)">
<path d="M20.9231 10.4615C20.9231 4.68379 16.2393 0 10.4615 0C4.68379 0 0 4.68379 0 10.4615C0 15.6831 3.82561 20.0112 8.82692 20.796V13.4856H6.17067V10.4615H8.82692V8.15673C8.82692 5.53481 10.3888 4.08654 12.7784 4.08654C13.9226 4.08654 15.1202 4.29087 15.1202 4.29087V6.86538H13.8011C12.5015 6.86538 12.0962 7.67186 12.0962 8.5V10.4615H14.9976L14.5338 13.4856H12.0962V20.796C17.0975 20.0112 20.9231 15.6831 20.9231 10.4615Z" fill="white"/>
</g>
<defs>
<clipPath id="clip0">
<rect width="20.9231" height="20.9231" fill="white"/>
</clipPath>
</defs>
</svg>
