<svg width="21" height="22" viewBox="0 0 21 22" fill="none" xmlns="http://www.w3.org/2000/svg">
<g clip-path="url(#clip0)">
<path d="M10.4615 2.3336C13.2567 2.3336 13.5877 2.34586 14.687 2.3949C15.7087 2.43985 16.2603 2.61149 16.6281 2.75451C17.1144 2.9425 17.4659 3.17134 17.8296 3.53504C18.1974 3.90283 18.4221 4.25019 18.6101 4.73649C18.7531 5.10427 18.9248 5.66004 18.9697 6.67759C19.0188 7.78096 19.031 8.11197 19.031 10.9031C19.031 13.6983 19.0188 14.0293 18.9697 15.1286C18.9248 16.1502 18.7531 16.7019 18.6101 17.0697C18.4221 17.556 18.1933 17.9074 17.8296 18.2711C17.4618 18.6389 17.1144 18.8636 16.6281 19.0516C16.2603 19.1947 15.7046 19.3663 14.687 19.4112C13.5837 19.4603 13.2526 19.4725 10.4615 19.4725C7.66635 19.4725 7.33534 19.4603 6.23606 19.4112C5.21442 19.3663 4.66274 19.1947 4.29495 19.0516C3.80865 18.8636 3.45721 18.6348 3.09351 18.2711C2.72572 17.9033 2.50096 17.556 2.31298 17.0697C2.16995 16.7019 1.99832 16.1461 1.95337 15.1286C1.90433 14.0252 1.89207 13.6942 1.89207 10.9031C1.89207 8.10788 1.90433 7.77687 1.95337 6.67759C1.99832 5.65596 2.16995 5.10427 2.31298 4.73649C2.50096 4.25019 2.72981 3.89875 3.09351 3.53504C3.4613 3.16725 3.80865 2.9425 4.29495 2.75451C4.66274 2.61149 5.21851 2.43985 6.23606 2.3949C7.33534 2.34586 7.66635 2.3336 10.4615 2.3336ZM10.4615 0.449707C7.62139 0.449707 7.26587 0.461967 6.15024 0.511005C5.0387 0.560044 4.27452 0.739851 3.6125 0.997303C2.92188 1.26701 2.3375 1.62254 1.75721 2.20692C1.17284 2.78721 0.817308 3.37158 0.547596 4.05812C0.290144 4.72423 0.110337 5.48432 0.0612981 6.59586C0.0122596 7.71557 0 8.0711 0 10.9112C0 13.7514 0.0122596 14.1069 0.0612981 15.2225C0.110337 16.3341 0.290144 17.0983 0.547596 17.7603C0.817308 18.4509 1.17284 19.0353 1.75721 19.6156C2.3375 20.1959 2.92188 20.5555 3.60841 20.8211C4.27452 21.0786 5.03462 21.2584 6.14615 21.3074C7.26178 21.3564 7.61731 21.3687 10.4575 21.3687C13.2976 21.3687 13.6531 21.3564 14.7688 21.3074C15.8803 21.2584 16.6445 21.0786 17.3065 20.8211C17.993 20.5555 18.5774 20.1959 19.1577 19.6156C19.738 19.0353 20.0976 18.4509 20.3632 17.7644C20.6207 17.0983 20.8005 16.3382 20.8495 15.2266C20.8986 14.111 20.9108 13.7555 20.9108 10.9153C20.9108 8.07519 20.8986 7.71966 20.8495 6.60403C20.8005 5.4925 20.6207 4.72831 20.3632 4.06629C20.1058 3.37158 19.7502 2.78721 19.1659 2.20692C18.5856 1.62663 18.0012 1.26701 17.3147 1.00139C16.6486 0.743938 15.8885 0.56413 14.7769 0.515092C13.6572 0.461967 13.3017 0.449707 10.4615 0.449707Z" fill="white"/>
<path d="M10.4616 5.53745C7.49474 5.53745 5.08777 7.94442 5.08777 10.9112C5.08777 13.8781 7.49474 16.285 10.4616 16.285C13.4284 16.285 15.8354 13.8781 15.8354 10.9112C15.8354 7.94442 13.4284 5.53745 10.4616 5.53745ZM10.4616 14.3971C8.53681 14.3971 6.97575 12.836 6.97575 10.9112C6.97575 8.98648 8.53681 7.42543 10.4616 7.42543C12.3863 7.42543 13.9474 8.98648 13.9474 10.9112C13.9474 12.836 12.3863 14.3971 10.4616 14.3971Z" fill="white"/>
<path d="M17.3024 5.32491C17.3024 6.01962 16.7385 6.57948 16.0478 6.57948C15.3531 6.57948 14.7933 6.01554 14.7933 5.32491C14.7933 4.6302 15.3572 4.07034 16.0478 4.07034C16.7385 4.07034 17.3024 4.63429 17.3024 5.32491Z" fill="white"/>
</g>
<defs>
<clipPath id="clip0">
<rect width="20.9231" height="20.9231" fill="white" transform="translate(0 0.449707)"/>
</clipPath>
</defs>
</svg>
