<svg width="21" height="22" viewBox="0 0 21 22" fill="none" xmlns="http://www.w3.org/2000/svg">
<g clip-path="url(#clip0)">
<path d="M6.58219 19.5888C14.4757 19.5888 18.7944 13.0474 18.7944 7.37655C18.7944 7.19266 18.7903 7.00467 18.7821 6.82078C19.6222 6.21323 20.3473 5.46069 20.9231 4.59852C20.1407 4.94663 19.3099 5.17398 18.4593 5.2728C19.355 4.73592 20.0256 3.89252 20.3469 2.89893C19.5043 3.39828 18.5828 3.75054 17.622 3.94059C16.9746 3.2527 16.1186 2.79723 15.1864 2.64461C14.2542 2.49199 13.2977 2.65071 12.4647 3.09624C11.6317 3.54177 10.9687 4.24929 10.5782 5.1094C10.1877 5.96952 10.0914 6.93434 10.3042 7.85467C8.59807 7.76906 6.92897 7.32585 5.40511 6.55378C3.88125 5.78172 2.53666 4.69803 1.45849 3.37297C0.910502 4.31775 0.742819 5.43575 0.989514 6.49972C1.23621 7.5637 1.87877 8.49383 2.78661 9.10107C2.10506 9.07943 1.43844 8.89593 0.841827 8.56573V8.61886C0.841216 9.61034 1.18398 10.5714 1.81186 11.3388C2.43974 12.1061 3.31397 12.6323 4.28596 12.828C3.65461 13.0007 2.99198 13.0259 2.34935 12.9015C2.62363 13.7542 3.15727 14.5 3.8758 15.0348C4.59433 15.5696 5.4619 15.8667 6.35743 15.8847C4.83709 17.079 2.95902 17.7267 1.02572 17.7237C0.682866 17.7231 0.340348 17.7021 0 17.6607C1.96403 18.9208 4.24872 19.59 6.58219 19.5888Z" fill="white"/>
</g>
<defs>
<clipPath id="clip0">
<rect width="20.9231" height="20.9231" fill="white" transform="translate(0 0.627197)"/>
</clipPath>
</defs>
</svg>
